<mxfile host="app.diagrams.net" agent="Mozilla/5.0 (Windows NT 10.0; Win64; x64) AppleWebKit/537.36 (KHTML, like Gecko) Chrome/130.0.0.0 Safari/537.36" version="24.8.6" pages="4">
  <diagram name="HomePage_AdminPage_VideoPlaybackPage" id="gV5MZMNPJmtVABTJIi7u">
    <mxGraphModel dx="880" dy="434" grid="1" gridSize="10" guides="1" tooltips="1" connect="1" arrows="1" fold="1" page="1" pageScale="1" pageWidth="850" pageHeight="1100" math="0" shadow="0">
      <root>
        <mxCell id="0" />
        <mxCell id="1" parent="0" />
        <mxCell id="vVo_GnPVLjepMhWohwJN-1" value="" style="whiteSpace=wrap;html=1;aspect=fixed;" parent="1" vertex="1">
          <mxGeometry x="80" y="40" width="240" height="240" as="geometry" />
        </mxCell>
        <mxCell id="vVo_GnPVLjepMhWohwJN-2" value="" style="whiteSpace=wrap;html=1;aspect=fixed;" parent="1" vertex="1">
          <mxGeometry x="440" y="40" width="240" height="240" as="geometry" />
        </mxCell>
        <mxCell id="vVo_GnPVLjepMhWohwJN-3" value="" style="whiteSpace=wrap;html=1;aspect=fixed;" parent="1" vertex="1">
          <mxGeometry x="250" y="320" width="240" height="240" as="geometry" />
        </mxCell>
        <mxCell id="vVo_GnPVLjepMhWohwJN-4" value="" style="rounded=0;whiteSpace=wrap;html=1;" parent="1" vertex="1">
          <mxGeometry x="90" y="60" width="220" height="30" as="geometry" />
        </mxCell>
        <mxCell id="vVo_GnPVLjepMhWohwJN-5" value="" style="rounded=0;whiteSpace=wrap;html=1;" parent="1" vertex="1">
          <mxGeometry x="260" y="340" width="220" height="30" as="geometry" />
        </mxCell>
        <mxCell id="vVo_GnPVLjepMhWohwJN-8" value="" style="rounded=0;whiteSpace=wrap;html=1;" parent="1" vertex="1">
          <mxGeometry x="450" y="60" width="220" height="30" as="geometry" />
        </mxCell>
        <mxCell id="vVo_GnPVLjepMhWohwJN-9" value="" style="rounded=0;whiteSpace=wrap;html=1;" parent="1" vertex="1">
          <mxGeometry x="90" y="240" width="220" height="30" as="geometry" />
        </mxCell>
        <mxCell id="vVo_GnPVLjepMhWohwJN-10" value="" style="rounded=0;whiteSpace=wrap;html=1;" parent="1" vertex="1">
          <mxGeometry x="450" y="240" width="220" height="30" as="geometry" />
        </mxCell>
        <mxCell id="vVo_GnPVLjepMhWohwJN-11" value="" style="rounded=0;whiteSpace=wrap;html=1;" parent="1" vertex="1">
          <mxGeometry x="260" y="520" width="220" height="30" as="geometry" />
        </mxCell>
        <mxCell id="xLs9clQ6aegDljpWuYLM-3" value="" style="rounded=0;whiteSpace=wrap;html=1;" parent="1" vertex="1">
          <mxGeometry x="90" y="110" width="40" height="110" as="geometry" />
        </mxCell>
        <mxCell id="xLs9clQ6aegDljpWuYLM-5" value="" style="rounded=0;whiteSpace=wrap;html=1;" parent="1" vertex="1">
          <mxGeometry x="450" y="110" width="40" height="110" as="geometry" />
        </mxCell>
        <mxCell id="xLs9clQ6aegDljpWuYLM-7" value="" style="rounded=0;whiteSpace=wrap;html=1;" parent="1" vertex="1">
          <mxGeometry x="440" y="390" width="40" height="110" as="geometry" />
        </mxCell>
        <mxCell id="xLs9clQ6aegDljpWuYLM-8" value="" style="rounded=0;whiteSpace=wrap;html=1;" parent="1" vertex="1">
          <mxGeometry x="260" y="390" width="170" height="110" as="geometry" />
        </mxCell>
        <mxCell id="xLs9clQ6aegDljpWuYLM-9" value="" style="rounded=0;whiteSpace=wrap;html=1;" parent="1" vertex="1">
          <mxGeometry x="140" y="110" width="160" height="10" as="geometry" />
        </mxCell>
        <mxCell id="xLs9clQ6aegDljpWuYLM-10" value="" style="whiteSpace=wrap;html=1;aspect=fixed;" parent="1" vertex="1">
          <mxGeometry x="150" y="130" width="30" height="30" as="geometry" />
        </mxCell>
        <mxCell id="xLs9clQ6aegDljpWuYLM-11" value="" style="whiteSpace=wrap;html=1;aspect=fixed;" parent="1" vertex="1">
          <mxGeometry x="205" y="130" width="30" height="30" as="geometry" />
        </mxCell>
        <mxCell id="xLs9clQ6aegDljpWuYLM-12" value="" style="whiteSpace=wrap;html=1;aspect=fixed;" parent="1" vertex="1">
          <mxGeometry x="260" y="130" width="30" height="30" as="geometry" />
        </mxCell>
        <mxCell id="xLs9clQ6aegDljpWuYLM-13" value="" style="whiteSpace=wrap;html=1;aspect=fixed;" parent="1" vertex="1">
          <mxGeometry x="150" y="180" width="30" height="30" as="geometry" />
        </mxCell>
        <mxCell id="xLs9clQ6aegDljpWuYLM-14" value="" style="whiteSpace=wrap;html=1;aspect=fixed;" parent="1" vertex="1">
          <mxGeometry x="205" y="180" width="30" height="30" as="geometry" />
        </mxCell>
        <mxCell id="xLs9clQ6aegDljpWuYLM-15" value="" style="whiteSpace=wrap;html=1;aspect=fixed;" parent="1" vertex="1">
          <mxGeometry x="260" y="180" width="30" height="30" as="geometry" />
        </mxCell>
        <mxCell id="xLs9clQ6aegDljpWuYLM-17" value="" style="endArrow=none;html=1;rounded=0;" parent="1" edge="1">
          <mxGeometry width="50" height="50" relative="1" as="geometry">
            <mxPoint x="145" y="220" as="sourcePoint" />
            <mxPoint x="295" y="220" as="targetPoint" />
          </mxGeometry>
        </mxCell>
        <mxCell id="xLs9clQ6aegDljpWuYLM-18" value="" style="whiteSpace=wrap;html=1;aspect=fixed;" parent="1" vertex="1">
          <mxGeometry x="500" y="110" width="50" height="50" as="geometry" />
        </mxCell>
        <mxCell id="xLs9clQ6aegDljpWuYLM-19" value="" style="rounded=0;whiteSpace=wrap;html=1;" parent="1" vertex="1">
          <mxGeometry x="560" y="110" width="110" height="50" as="geometry" />
        </mxCell>
        <mxCell id="xLs9clQ6aegDljpWuYLM-20" value="" style="rounded=0;whiteSpace=wrap;html=1;" parent="1" vertex="1">
          <mxGeometry x="500" y="170" width="170" height="50" as="geometry" />
        </mxCell>
        <mxCell id="xLs9clQ6aegDljpWuYLM-21" value="" style="endArrow=classic;html=1;rounded=0;" parent="1" edge="1">
          <mxGeometry width="50" height="50" relative="1" as="geometry">
            <mxPoint x="290" y="190" as="sourcePoint" />
            <mxPoint x="370" y="320" as="targetPoint" />
            <Array as="points">
              <mxPoint x="370" y="190" />
            </Array>
          </mxGeometry>
        </mxCell>
        <mxCell id="xLs9clQ6aegDljpWuYLM-22" value="" style="endArrow=classic;html=1;rounded=0;exitX=1;exitY=0.5;exitDx=0;exitDy=0;entryX=0;entryY=0.417;entryDx=0;entryDy=0;entryPerimeter=0;" parent="1" source="vVo_GnPVLjepMhWohwJN-4" target="vVo_GnPVLjepMhWohwJN-2" edge="1">
          <mxGeometry width="50" height="50" relative="1" as="geometry">
            <mxPoint x="410" y="60" as="sourcePoint" />
            <mxPoint x="430" y="110" as="targetPoint" />
            <Array as="points">
              <mxPoint x="370" y="75" />
              <mxPoint x="370" y="140" />
            </Array>
          </mxGeometry>
        </mxCell>
        <mxCell id="xLs9clQ6aegDljpWuYLM-23" value="" style="endArrow=classic;html=1;rounded=0;exitX=0.149;exitY=0.982;exitDx=0;exitDy=0;exitPerimeter=0;" parent="1" source="xLs9clQ6aegDljpWuYLM-20" edge="1">
          <mxGeometry width="50" height="50" relative="1" as="geometry">
            <mxPoint x="514.2800000000002" y="223.41000000000017" as="sourcePoint" />
            <mxPoint x="400" y="320" as="targetPoint" />
            <Array as="points">
              <mxPoint x="520" y="231" />
              <mxPoint x="460" y="231" />
              <mxPoint x="400" y="230.96" />
            </Array>
          </mxGeometry>
        </mxCell>
        <mxCell id="xLs9clQ6aegDljpWuYLM-24" value="" style="endArrow=classic;html=1;rounded=0;exitX=0;exitY=0.5;exitDx=0;exitDy=0;" parent="1" source="vVo_GnPVLjepMhWohwJN-5" edge="1">
          <mxGeometry width="50" height="50" relative="1" as="geometry">
            <mxPoint x="140" y="360" as="sourcePoint" />
            <mxPoint x="200" y="280" as="targetPoint" />
            <Array as="points">
              <mxPoint x="200" y="355" />
            </Array>
          </mxGeometry>
        </mxCell>
      </root>
    </mxGraphModel>
  </diagram>
  <diagram id="bgSNK3n3w9krwaEr8GSH" name="SignUpPage">
    <mxGraphModel dx="880" dy="434" grid="1" gridSize="10" guides="1" tooltips="1" connect="1" arrows="1" fold="1" page="1" pageScale="1" pageWidth="850" pageHeight="1100" math="0" shadow="0">
      <root>
        <mxCell id="0" />
        <mxCell id="1" parent="0" />
        <mxCell id="cj5HNdDWLN9NRGMRdR_v-1" value="" style="whiteSpace=wrap;html=1;aspect=fixed;" vertex="1" parent="1">
          <mxGeometry x="105" y="20" width="320" height="320" as="geometry" />
        </mxCell>
        <mxCell id="cj5HNdDWLN9NRGMRdR_v-2" value="" style="rounded=0;whiteSpace=wrap;html=1;" vertex="1" parent="1">
          <mxGeometry x="120" y="40" width="290" height="40" as="geometry" />
        </mxCell>
        <mxCell id="cj5HNdDWLN9NRGMRdR_v-3" value="" style="rounded=0;whiteSpace=wrap;html=1;" vertex="1" parent="1">
          <mxGeometry x="120" y="300" width="290" height="30" as="geometry" />
        </mxCell>
        <mxCell id="cj5HNdDWLN9NRGMRdR_v-5" value="" style="rounded=0;whiteSpace=wrap;html=1;" vertex="1" parent="1">
          <mxGeometry x="210" y="100" width="120" height="20" as="geometry" />
        </mxCell>
        <mxCell id="cj5HNdDWLN9NRGMRdR_v-6" value="" style="rounded=0;whiteSpace=wrap;html=1;" vertex="1" parent="1">
          <mxGeometry x="210" y="130" width="120" height="20" as="geometry" />
        </mxCell>
        <mxCell id="cj5HNdDWLN9NRGMRdR_v-7" value="" style="rounded=1;whiteSpace=wrap;html=1;" vertex="1" parent="1">
          <mxGeometry x="210" y="160" width="40" height="20" as="geometry" />
        </mxCell>
      </root>
    </mxGraphModel>
  </diagram>
  <diagram id="O-RFrE2mxWrL68tkw7LZ" name="Login+Contact Page">
    <mxGraphModel dx="880" dy="434" grid="1" gridSize="10" guides="1" tooltips="1" connect="1" arrows="1" fold="1" page="1" pageScale="1" pageWidth="850" pageHeight="1100" math="0" shadow="0">
      <root>
        <mxCell id="0" />
        <mxCell id="1" parent="0" />
        <mxCell id="ZCTH1ZQREGMGmcwZL39o-1" value="" style="whiteSpace=wrap;html=1;aspect=fixed;" vertex="1" parent="1">
          <mxGeometry x="80" y="40" width="330" height="330" as="geometry" />
        </mxCell>
        <mxCell id="P7bjrFRa3BaPcE4tks15-1" value="" style="rounded=0;whiteSpace=wrap;html=1;" vertex="1" parent="1">
          <mxGeometry x="100" y="60" width="290" height="30" as="geometry" />
        </mxCell>
        <mxCell id="_nXDHrpJhQC6tWHFSos2-1" value="" style="rounded=0;whiteSpace=wrap;html=1;" vertex="1" parent="1">
          <mxGeometry x="100" y="320" width="290" height="30" as="geometry" />
        </mxCell>
        <mxCell id="_nXDHrpJhQC6tWHFSos2-3" value="" style="rounded=0;whiteSpace=wrap;html=1;" vertex="1" parent="1">
          <mxGeometry x="100" y="110" width="100" height="200" as="geometry" />
        </mxCell>
        <mxCell id="ZuPUQ3QeZ78hcLvodUJf-1" value="" style="rounded=0;whiteSpace=wrap;html=1;" vertex="1" parent="1">
          <mxGeometry x="220" y="130" width="120" height="20" as="geometry" />
        </mxCell>
        <mxCell id="ZuPUQ3QeZ78hcLvodUJf-2" value="" style="rounded=0;whiteSpace=wrap;html=1;" vertex="1" parent="1">
          <mxGeometry x="220" y="160" width="120" height="20" as="geometry" />
        </mxCell>
        <mxCell id="ZuPUQ3QeZ78hcLvodUJf-5" value="" style="rounded=0;whiteSpace=wrap;html=1;" vertex="1" parent="1">
          <mxGeometry x="220" y="190" width="120" height="60" as="geometry" />
        </mxCell>
        <mxCell id="ZuPUQ3QeZ78hcLvodUJf-6" value="" style="rounded=1;whiteSpace=wrap;html=1;" vertex="1" parent="1">
          <mxGeometry x="220" y="260" width="40" height="20" as="geometry" />
        </mxCell>
      </root>
    </mxGraphModel>
  </diagram>
  <diagram id="A42XtC51igq0y-xeIw38" name="Paging feature">
    <mxGraphModel dx="880" dy="434" grid="1" gridSize="10" guides="1" tooltips="1" connect="1" arrows="1" fold="1" page="1" pageScale="1" pageWidth="850" pageHeight="1100" math="0" shadow="0">
      <root>
        <mxCell id="0" />
        <mxCell id="1" parent="0" />
        <mxCell id="3ZHPgcy84djmoO7vWtL0-1" value="" style="whiteSpace=wrap;html=1;aspect=fixed;" vertex="1" parent="1">
          <mxGeometry x="80" y="40" width="330" height="330" as="geometry" />
        </mxCell>
        <mxCell id="7Gafm-uO00ftHc3OBYoy-1" value="" style="rounded=0;whiteSpace=wrap;html=1;" vertex="1" parent="1">
          <mxGeometry x="100" y="60" width="290" height="30" as="geometry" />
        </mxCell>
        <mxCell id="7Gafm-uO00ftHc3OBYoy-2" value="" style="rounded=0;whiteSpace=wrap;html=1;" vertex="1" parent="1">
          <mxGeometry x="100" y="320" width="290" height="30" as="geometry" />
        </mxCell>
        <mxCell id="7Gafm-uO00ftHc3OBYoy-3" value="" style="whiteSpace=wrap;html=1;aspect=fixed;" vertex="1" parent="1">
          <mxGeometry x="100" y="120" width="40" height="40" as="geometry" />
        </mxCell>
        <mxCell id="7Gafm-uO00ftHc3OBYoy-4" value="" style="whiteSpace=wrap;html=1;aspect=fixed;" vertex="1" parent="1">
          <mxGeometry x="100" y="180" width="40" height="40" as="geometry" />
        </mxCell>
        <mxCell id="7Gafm-uO00ftHc3OBYoy-5" value="" style="whiteSpace=wrap;html=1;aspect=fixed;" vertex="1" parent="1">
          <mxGeometry x="100" y="240" width="40" height="40" as="geometry" />
        </mxCell>
        <mxCell id="1uxHU7A9TZ5c9Rux5-Jq-1" value="" style="rounded=0;whiteSpace=wrap;html=1;" vertex="1" parent="1">
          <mxGeometry x="160" y="120" width="210" height="40" as="geometry" />
        </mxCell>
        <mxCell id="sZWMimOORIuHaZCRcj9I-2" value="" style="rounded=0;whiteSpace=wrap;html=1;" vertex="1" parent="1">
          <mxGeometry x="160" y="180" width="210" height="40" as="geometry" />
        </mxCell>
        <mxCell id="sZWMimOORIuHaZCRcj9I-4" value="" style="rounded=0;whiteSpace=wrap;html=1;" vertex="1" parent="1">
          <mxGeometry x="160" y="240" width="210" height="40" as="geometry" />
        </mxCell>
        <mxCell id="sZWMimOORIuHaZCRcj9I-5" value="" style="rounded=0;whiteSpace=wrap;html=1;" vertex="1" parent="1">
          <mxGeometry x="180" y="290" width="170" height="10" as="geometry" />
        </mxCell>
      </root>
    </mxGraphModel>
  </diagram>
</mxfile>
